:SAMPLES-PER-SECOND 30
:FULLY-SPECIFIED
:DEGREES
429
root  1.91704 39.6776 -1.90736 -3.33247 -7.40631 1.1406
RightUpLeg  -7.01658 -3.93513 -5.69947
RightLeg  7.81082 -4.04496 -3.41957
RightFoot  1.73536 0.115921 -1.00429
RightToes  1.74624e-010 -3.18055e-015 -2.98177e-016
Spine  -0.789393 3.20223 3.29219
Spine1  14.9445 3.89761 -0.937093
HEad  -19.408 7.46826 0.932802
LeftShoulder1  -3.88251e-019 9.70628e-020 -3.87848e-018
LeftArm  4.49198 36.1205 -85.9497
LeftForeArm  -32.6973 -33.5725 5.94282
LeftHand  0.105232 -3.73112 -1.20936
RightShoulder  9.27392 11.2499 42.3071
RightArm  13.6003 -25.1491 44.622
RightForeArm  -18.1887 24.6515 -12.4463
RightHand  -0.0499146 2.90324 -0.828736
LeftUpLeg  -3.87239 4.71028 -7.56927
LeftLeg  13.9367 12.4384 7.30341
LeftFoot  -7.49426 -0.210799 3.83981
LeftToes  7.37594e-011 2.64622e-011 -6.25182e-011
430
root  1.97163 39.7196 -1.89414 -3.0619 -7.95558 1.22236
RightUpLeg  -6.81529 -4.13804 -6.01452
RightLeg  7.16677 -4.14331 -3.10427
RightFoot  0.254007 -0.0898248 0.741123
RightToes  1.74624e-010 -3.18055e-015 -2.98177e-016
Spine  -1.10106 3.45325 3.7678
Spine1  14.4362 4.43046 -1.97468
HEad  -17.7728 6.85173 2.17282
LeftShoulder1  -3.88251e-019 9.70628e-020 -3.87848e-018
LeftArm  6.21293 35.5018 -85.759
LeftForeArm  -28.3679 -34.8598 6.49311
LeftHand  -0.114021 -4.52637 1.6005
RightShoulder  9.05299 11.204 41.391
RightArm  16.3029 -24.8341 46.0469
RightForeArm  -20.6365 25.8625 -12.9487
RightHand  -0.489693 2.39163 -7.09965
LeftUpLeg  -3.73145 3.81024 -7.69932
LeftLeg  13.2756 13.9102 6.97701
LeftFoot  -7.1937 -0.222047 3.93843
LeftToes  7.37594e-011 2.64622e-011 -6.25182e-011
431
root  2.05119 39.7258 -1.86138 -2.80355 -8.38828 1.43009
RightUpLeg  -6.75464 -5.621 -7.15026
RightLeg  7.29682 -4.3539 -2.02374
RightFoot  -1.63003 -0.485993 4.74232
RightToes  1.74624e-010 -3.18055e-015 -2.98177e-016
Spine  -1.28975 3.54366 4.70217
Spine1  13.7267 4.97645 -3.85319
HEad  -16.5075 6.16455 3.52915
LeftShoulder1  -3.88251e-019 9.70628e-020 -3.87848e-018
LeftArm  7.99335 35.2983 -85.0873
LeftForeArm  -22.985 -35.4227 6.90253
LeftHand  -0.439422 -5.61234 5.05358
RightShoulder  8.83153 11.1548 40.4693
RightArm  19.5306 -25.0079 46.5482
RightForeArm  -22.5122 27.1116 -13.5133
RightHand  -1.076 3.33889 -14.1083
LeftUpLeg  -3.74134 2.7176 -8.04137
LeftLeg  12.9481 15.4524 6.84348
LeftFoot  -7.08498 -0.229154 4.00123
LeftToes  7.37594e-011 2.64622e-011 -6.25182e-011
432
root  2.07011 39.7325 -1.83459 -2.65456 -9.02241 1.63118
RightUpLeg  -6.82586 -6.96631 -8.05428
RightLeg  7.5805 -4.95206 -1.27114
RightFoot  -2.3463 -0.660135 6.89446
RightToes  1.74624e-010 -3.18055e-015 -2.98177e-016
Spine  -1.26095 3.7312 5.41437
Spine1  12.9271 5.53777 -5.52293
HEad  -15.6369 5.24989 4.5716
LeftShoulder1  -3.88251e-019 9.70628e-020 -3.87848e-018
LeftArm  9.23365 35.6627 -84.1297
LeftForeArm  -17.797 -35.4099 7.14283
LeftHand  -0.803141 -6.5571 8.34115
RightShoulder  8.68427 11.1209 39.8522
RightArm  22.7862 -25.4182 46.0081
RightForeArm  -22.5687 28.4357 -14.2207
RightHand  -1.58168 4.48656 -18.4337
LeftUpLeg  -3.63658 1.82763 -8.20717
LeftLeg  12.6549 16.984 6.6363
LeftFoot  -6.95911 -0.233428 4.00532
LeftToes  7.37594e-011 2.64622e-011 -6.25182e-011
433
root  1.97783 39.7527 -1.82512 -2.83719 -10.0173 1.70018
RightUpLeg  -6.80415 -7.45804 -8.13575
RightLeg  7.77688 -4.80807 -1.30391
RightFoot  -1.10311 -0.644004 6.04778
RightToes  1.74624e-010 -3.18055e-015 -2.98177e-016
Spine  -0.725686 4.04454 5.73759
Spine1  12.0688 6.08916 -6.65816
HEad  -15.0324 4.31884 4.89484
LeftShoulder1  -3.88251e-019 9.70628e-020 -3.87848e-018
LeftArm  9.88124 36.6306 -82.896
LeftForeArm  -15.3599 -34.8068 7.07969
LeftHand  -1.07096 -7.08686 10.5515
RightShoulder  8.58533 11.0978 39.4352
RightArm  25.3282 -26.0357 44.8933
RightForeArm  -21.7607 29.6092 -14.9072
RightHand  -1.5627 4.41503 -18.2223
LeftUpLeg  -3.13802 1.27669 -7.96382
LeftLeg  12.3608 18.4899 6.36651
LeftFoot  -6.78263 -0.22843 3.81156
LeftToes  7.37594e-011 2.64622e-011 -6.25182e-011
434
root  1.79947 39.7586 -1.82377 -3.27603 -11.1458 1.81266
RightUpLeg  -6.77026 -7.49768 -7.81679
RightLeg  8.21495 -2.98536 -1.69701
RightFoot  1.07302 -0.602388 4.68508
RightToes  1.74624e-010 -3.18055e-015 -2.98177e-016
Spine  0.173286 4.2743 5.60338
Spine1  11.1296 6.46362 -7.47753
HEad  -14.6657 3.80334 4.5256
LeftShoulder1  -3.88251e-019 9.70628e-020 -3.87848e-018
LeftArm  10.0109 38.2373 -81.3261
LeftForeArm  -16.3432 -33.5877 6.67959
LeftHand  -1.17825 -7.28051 11.3888
RightShoulder  8.49779 11.076 39.0675
RightArm  27.3489 -27.0313 43.641
RightForeArm  -21.4674 30.3512 -15.3404
RightHand  -1.2503 3.82205 -15.5796
LeftUpLeg  -2.44598 0.760975 -7.6412
LeftLeg  12.2621 20.0471 6.26952
LeftFoot  -6.63848 -0.209169 3.39091
LeftToes  7.37594e-011 2.64622e-011 -6.25182e-011
435
root  1.60885 39.7407 -1.79874 -3.58521 -11.9807 2.17571
RightUpLeg  -6.96928 -7.91429 -7.78775
RightLeg  8.91082 -0.291779 -1.87625
RightFoot  2.55151 -0.676128 4.74121
RightToes  1.74624e-010 -3.18055e-015 -2.98177e-016
Spine  0.583015 4.22166 5.16429
Spine1  10.4958 6.50642 -8.14212
HEad  -14.6613 3.84166 3.85208
LeftShoulder1  -3.88251e-019 9.70628e-020 -3.87848e-018
LeftArm  9.6899 40.3886 -79.4544
LeftForeArm  -19.0741 -31.7189 6.09697
LeftHand  -1.16318 -7.10029 11.4046
RightShoulder  8.47691 11.0709 38.9795
RightArm  29.9045 -28.1196 42.176
RightForeArm  -21.7504 30.3399 -15.3206
RightHand  -1.12791 3.79568 -14.1178
LeftUpLeg  -1.93696 -0.235154 -7.69529
LeftLeg  12.2106 21.8016 6.32924
LeftFoot  -6.48686 -0.186037 2.9205
LeftToes  7.37594e-011 2.64622e-011 -6.25182e-011
436
root  1.43429 39.7384 -1.7275 -3.48818 -12.2517 2.7953
RightUpLeg  -7.3393 -8.82934 -8.24011
RightLeg  9.31561 1.5775 -1.67804
RightFoot  2.86723 -0.780011 5.37907
RightToes  1.74624e-010 -3.18055e-015 -2.98177e-016
Spine  -0.187884 3.84269 4.59301
Spine1  10.6175 6.21127 -8.68617
HEad  -15.061 4.25605 3.15591
LeftShoulder1  -3.88251e-019 9.70628e-020 -3.87848e-018
LeftArm  8.25171 42.7372 -77.3127
LeftForeArm  -20.8588 -29.0539 4.84763
LeftHand  -1.08612 -6.46856 11.236
RightShoulder  8.58226 11.0979 39.4202
RightArm  33.1818 -28.6731 40.5177
RightForeArm  -20.7027 28.9626 -14.6257
RightHand  -1.22002 4.59701 -14.0721
LeftUpLeg  -1.60026 -1.71231 -8.20445
LeftLeg  11.5274 23.5488 6.11493
LeftFoot  -6.10044 -0.177049 2.62789
LeftToes  7.37594e-011 2.64622e-011 -6.25182e-011
437
root  1.23027 39.7647 -1.63431 -3.00633 -12.042 3.35371
RightUpLeg  -7.71813 -9.3515 -8.60051
RightLeg  9.25535 1.72349 -1.49749
RightFoot  2.61485 -0.750269 5.25567
RightToes  1.74624e-010 -3.18055e-015 -2.98177e-016
Spine  -1.72394 3.23594 4.03517
Spine1  11.1449 5.67051 -9.06804
HEad  -15.6859 4.9093 2.39073
LeftShoulder1  -3.88251e-019 9.70628e-020 -3.87848e-018
LeftArm  0.908011 44.9253 -74.6193
LeftForeArm  -15.5784 -25.2018 0.65074
LeftHand  -1.01055 -5.69169 11.2069
RightShoulder  8.75613 11.1386 40.1511
RightArm  35.5939 -28.5844 39.3142
RightForeArm  -16.7512 25.4963 -12.8857
RightHand  -1.17527 5.4901 -12.4835
LeftUpLeg  -1.44235 -2.99841 -8.66697
LeftLeg  10.3115 24.6377 5.6049
LeftFoot  -5.52545 -0.174907 2.41959
LeftToes  7.37594e-011 2.64622e-011 -6.25182e-011
438
root  0.961913 39.8109 -1.55068 -2.31486 -11.5683 3.51667
RightUpLeg  -7.94346 -8.68657 -8.29198
RightLeg  8.83648 0.318115 -1.66705
RightFoot  2.4223 -0.64809 4.5862
RightToes  1.74624e-010 -3.18055e-015 -2.98177e-016
Spine  -3.09909 2.53635 3.67096
Spine1  11.289 4.97754 -9.32055
HEad  -16.2801 5.71876 1.4252
LeftShoulder1  -3.88251e-019 9.70628e-020 -3.87848e-018
LeftArm  -12.7366 46.938 -71.435
LeftForeArm  -3.36405 -19.0932 -4.78417
LeftHand  -0.981116 -5.06515 11.5388
RightShoulder  8.88091 11.1657 40.6761
RightArm  28.8797 -28.2523 38.845
RightForeArm  -4.40474 20.0423 -7.96662
RightHand  -0.884784 6.08314 -8.96257
LeftUpLeg  -1.49454 -3.65229 -8.61098
LeftLeg  9.10018 24.773 5.14685
LeftFoot  -4.91797 -0.162736 2.09267
LeftToes  7.37594e-011 2.64622e-011 -6.25182e-011
